<svg id="Слой_1" data-name="Слой 1" xmlns="http://www.w3.org/2000/svg" viewBox="0 0 640 480"><defs><style>.cls-1,.cls-2{fill:#fff;}.cls-2{opacity:0;}</style></defs><title>Монтажная область 1</title><polygon class="cls-1" points="299 236.5 299 228.14 300 227.08 300 226.17 300.92 225 302 225 302 224.18 302.88 223 304.05 223 305 223 305 222 328.91 222 330 223.09 330 225.27 330.67 226.19 330.32 225.7 330.67 226.19 335.97 226.02 336.98 226.86 337.9 227.03 338.99 227.61 338.82 227.94 339.24 228.7 340 229.15 340 229.87 341 230.12 341 231.04 342 231.88 342 252 340.92 252 341.09 253.03 340.84 254 340.08 254 340.01 255 339 255 338.91 256 337.83 256 337.66 257 313 257 311.73 255.89 311.55 254.16 312.18 253 304.18 253.09 303.18 252.18 302 252.1 302 251.27 301 251.11 301 249.85 300 249.6 300 248.82 299.43 247.93 299 246.96 299 236.5"/><polygon class="cls-2" points="316.92 241 314.25 241 312 238.84 312 235.9 314.16 234 320.04 234 321 234.92 321 236.84 321.94 237.76 328.03 237.93 329.14 238.85 330 239.87 330 243.02 329.23 244.06 328.19 245.11 326.99 246 321.22 246 320 244.95 320 242.29 318.69 241.03 316.92 241"/></svg>